HIERARCHY
ROOT Hips
{
	OFFSET 1.431511 101.407013 -0.591700
	CHANNELS 6 Xposition Yposition Zposition Xrotation Yrotation Zrotation
	JOINT Chest
	{
		OFFSET -2.449219 13.411095 0.546019
		CHANNELS 3 Xrotation Yrotation Zrotation
		JOINT Chest2
		{
			OFFSET -11.499411 18.013222 1.534242
			CHANNELS 3 Xrotation Yrotation Zrotation
			JOINT Chest3
			{
				OFFSET -4.764867 14.073013 -1.437441
				CHANNELS 3 Xrotation Yrotation Zrotation
				JOINT Neck
				{
					OFFSET -3.976904 16.816650 -0.018080
					CHANNELS 3 Xrotation Yrotation Zrotation
					JOINT Head
					{
						OFFSET 0.052221 10.453461 0.741764
						CHANNELS 3 Xrotation Yrotation Zrotation
						End Site
						{
							OFFSET 0.045593 10.458389 0.669143
						}
					}
				}
				JOINT LeftCollar
				{
					OFFSET 0.910744 13.842529 3.059296
					CHANNELS 3 Xrotation Yrotation Zrotation
					JOINT LeftUpArm
					{
						OFFSET 16.295595 0.175354 -6.551508
						CHANNELS 3 Xrotation Yrotation Zrotation
						JOINT LeftLowArm
						{
							OFFSET 23.550266 -23.230164 6.743386
							CHANNELS 3 Xrotation Yrotation Zrotation
							JOINT LeftHand
							{
								OFFSET 18.812885 -14.073776 18.680239
								CHANNELS 3 Xrotation Yrotation Zrotation
								End Site
								{
									OFFSET 4.111664 -3.075912 4.082674
								}
							}
						}
					}
				}
				JOINT RightCollar
				{
					OFFSET -7.271305 11.907333 2.674375
					CHANNELS 3 Xrotation Yrotation Zrotation
					JOINT RightUpArm
					{
						OFFSET -15.300756 3.057770 -8.064312
						CHANNELS 3 Xrotation Yrotation Zrotation
						JOINT RightLowArm
						{
							OFFSET -23.448933 22.856430 8.213711
							CHANNELS 3 Xrotation Yrotation Zrotation
							JOINT RightHand
							{
								OFFSET -15.790359 25.144440 4.401770
								CHANNELS 3 Xrotation Yrotation Zrotation
								End Site
								{
									OFFSET -3.451149 5.495575 0.962047
								}
							}
						}
					}
				}
			}
		}
	}
	JOINT LeftUpLeg
	{
		OFFSET 9.464050 1.611198 2.873140
		CHANNELS 3 Xrotation Yrotation Zrotation
		JOINT LeftLowLeg
		{
			OFFSET -3.414579 -45.139431 13.955734
			CHANNELS 3 Xrotation Yrotation Zrotation
			JOINT LeftFoot
			{
				OFFSET -2.279036 -37.836067 -23.744619
				CHANNELS 3 Xrotation Yrotation Zrotation
				JOINT LeftToe
				{
					OFFSET -0.948038 -15.137873 18.152292
					CHANNELS 3 Xrotation Yrotation Zrotation
					End Site
					{
						OFFSET 0.928219 -0.282982 23.635086
					}
				}
			}
		}
	}
	JOINT RightUpLeg
	{
		OFFSET -9.464018 -1.611389 -2.873150
		CHANNELS 3 Xrotation Yrotation Zrotation
		JOINT RightLowLeg
		{
			OFFSET -38.946129 -24.223686 11.850056
			CHANNELS 3 Xrotation Yrotation Zrotation
			JOINT RightFoot
			{
				OFFSET -5.110252 -42.204506 -13.901255
				CHANNELS 3 Xrotation Yrotation Zrotation
				JOINT RightToe
				{
					OFFSET -8.796219 -20.612444 7.570364
					CHANNELS 3 Xrotation Yrotation Zrotation
					End Site
					{
						OFFSET -16.119122 -8.577180 15.038685
					}
				}
			}
		}
	}
}
MOTION
Frames: 7
Frame Time: 0.033333
-2.134010 105.287331 -1.111724 6.736901 13.706519 -11.345512 -5.393250 0.565538 -19.390094 7.087336 -2.321211 12.757839 1.571789 -5.391347 3.524334 0.942056 -13.323967 15.068089 -0.000001 -0.000000 0.000000 5.780512 1.138984 -11.424574 5.846094 -12.426330 -9.059898 17.035742 -7.279099 -3.322197 0.000002 0.000002 -0.000001 3.457160 0.138471 52.641603 16.771627 5.319456 82.974101 35.157033 8.455101 7.637937 0.000002 -0.000001 -0.000006 15.459286 6.908479 18.451751 -38.488816 12.285312 5.745768 16.582647 -26.936968 -6.922472 0.000000 -0.000000 -0.000001 11.189158 9.731802 63.941970 -19.847322 10.752132 -42.295451 -3.736740 27.096516 -10.211647 0.000001 0.000001 0.000000 
-2.135785 105.286667 -1.113382 6.605731 14.006784 -11.282025 -4.865446 0.647860 -19.263234 7.012056 -2.417297 12.757428 1.369577 -5.510974 3.436498 1.052815 -13.339949 14.952684 0.000000 -0.000000 0.000000 6.068785 0.368107 -11.405677 5.906220 -12.164060 -9.001336 16.345295 -7.685801 -2.882629 0.000003 -0.000000 0.000003 3.383034 0.295960 52.934591 16.777340 4.970621 82.832921 35.550001 8.629018 7.040525 -0.000000 0.000000 -0.000001 15.487155 6.960493 18.394347 -38.186105 12.161252 5.880342 15.963211 -27.419142 -7.218442 -0.000000 -0.000000 -0.000000 11.421517 9.707119 63.881072 -19.966340 10.768244 -42.201782 -4.173551 27.169345 -10.039836 0.000003 -0.000001 0.000002 
-2.137228 105.284607 -1.115855 6.558081 13.666861 -11.226950 -4.158424 0.763025 -19.138853 5.657353 -3.129704 12.291499 2.221505 -4.866292 3.770133 0.732055 -13.446152 14.934782 -0.000000 0.000001 -0.000000 6.179637 0.054021 -11.337064 5.772261 -12.058538 -9.028995 16.035131 -7.743061 -3.079049 0.000006 0.000000 -0.000003 3.340813 0.187529 52.958510 16.677669 4.846465 82.929794 35.652826 8.981706 6.666785 0.000000 -0.000000 -0.000003 15.610471 7.012657 18.394972 -38.034533 12.183510 5.799506 16.191252 -26.987747 -6.994231 -0.000001 -0.000000 -0.000000 11.564750 9.684192 63.875451 -19.991981 10.686719 -42.233590 -3.633037 27.173503 -10.498898 0.000002 -0.000001 0.000002 
-2.142348 105.287186 -1.123705 6.510006 13.738777 -11.174284 -3.224898 0.936705 -18.963308 3.864884 -4.198659 11.842483 3.413248 -4.572173 3.934209 1.030717 -13.410869 14.999205 -0.000000 0.000001 0.000000 6.031761 0.011943 -11.307168 5.841728 -11.551749 -9.121527 15.537420 -8.083105 -3.142987 0.000004 0.000002 -0.000001 3.247743 0.021316 52.866443 16.549168 4.429626 83.160060 35.442022 8.991727 7.117258 -0.000000 -0.000002 -0.000001 15.766078 7.053956 18.438336 -38.435626 12.324116 5.691665 16.419536 -27.215987 -7.073337 0.000000 0.000000 -0.000000 11.604368 9.671860 63.785627 -20.029338 10.826510 -42.183371 -3.655987 27.092441 -10.353566 0.000002 0.000001 0.000002 
-2.148816 105.288048 -1.128569 6.329061 13.476457 -11.103535 -2.457603 1.066522 -18.869788 2.909768 -4.633115 11.447830 3.864130 -3.769858 4.185940 0.678562 -13.555165 15.186736 -0.000000 -0.000000 0.000000 6.155977 -0.598445 -11.182543 5.790168 -11.512640 -9.159653 15.514602 -7.941402 -3.155912 -0.000000 0.000003 -0.000003 3.232073 -0.495330 52.918308 16.497455 4.167946 83.253886 35.536364 9.151953 7.120639 -0.000000 0.000000 -0.000003 15.676283 6.972674 18.443970 -38.020979 12.226020 5.563253 15.810619 -26.772272 -7.033408 -0.000001 -0.000000 -0.000000 11.400447 9.642327 63.691958 -19.556734 10.480522 -42.137230 -3.739631 27.050390 -10.180172 0.000003 0.000002 -0.000000 
-2.154998 105.288597 -1.135050 6.704367 13.725612 -11.180592 -2.578513 1.031307 -18.789063 2.502397 -4.926845 11.456326 4.322628 -4.025097 4.057811 0.790054 -13.406090 15.153832 -0.000000 0.000000 0.000000 6.205214 -0.590238 -11.003265 5.820977 -11.647470 -9.282998 15.521181 -7.858088 -2.967812 0.000002 0.000003 0.000001 3.230776 -0.014142 52.650629 16.549221 4.431984 83.438376 35.522345 9.077488 6.824329 -0.000000 -0.000001 -0.000001 15.275016 6.833445 18.496332 -37.783910 12.136039 5.567028 15.786830 -26.761050 -7.012877 0.000000 -0.000000 -0.000000 11.258893 9.669348 63.699382 -19.788911 10.738265 -42.069881 -4.168184 27.003281 -9.861968 0.000004 -0.000003 0.000001 
-2.163319 105.285225 -1.138552 6.727209 13.722015 -11.179970 -2.733692 1.006010 -18.813631 2.275149 -5.058941 11.401847 4.680636 -3.991224 4.091867 0.659578 -13.372457 15.058004 -0.000001 -0.000001 0.000000 6.139347 -0.600621 -10.959748 5.725884 -11.535271 -9.333442 15.441325 -7.866761 -3.116266 -0.000000 0.000000 -0.000003 3.150858 0.107299 52.350152 16.522793 4.097536 83.823005 35.611548 9.446047 6.892553 -0.000000 -0.000000 -0.000004 15.493902 6.910467 18.505919 -38.032102 12.257231 5.638454 16.204050 -26.980390 -6.968943 -0.000000 0.000000 -0.000001 11.348701 9.672678 63.752890 -19.824993 10.621400 -42.120349 -3.786132 27.025739 -10.178347 0.000002 -0.000000 0.000001 
